<svg xmlns="http://www.w3.org/2000/svg" viewBox="0 0 340 72" width="340" height="72" role="img" aria-label="diAiway">
  <path fill="#064e3b" d="M27.10 54L22.53 54L22.53 50.34Q19.77 54.66 14.41 54.66L14.41 54.66Q10.94 54.66 8.03 52.74Q5.11 50.83 3.51 47.40Q1.91 43.96 1.91 39.51L1.91 39.51Q1.91 35.16 3.36 31.62Q4.81 28.08 7.71 26.19Q10.61 24.30 14.19 24.30L14.19 24.30Q16.82 24.30 18.87 25.41Q20.92 26.52 22.20 28.30L22.20 28.30L22.20 13.91L27.10 13.91L27.10 54ZM6.97 39.51L6.97 39.51Q6.97 45.09 9.32 47.85Q11.68 50.61 14.88 50.61L14.88 50.61Q18.10 50.61 20.36 47.97Q22.61 45.33 22.61 39.92L22.61 39.92Q22.61 33.96 20.32 31.17Q18.02 28.38 14.66 28.38L14.66 28.38Q11.38 28.38 9.17 31.06Q6.97 33.74 6.97 39.51ZM39.79 19.57L34.86 19.57L34.86 13.91L39.79 13.91L39.79 19.57ZM39.79 54L34.86 54L34.86 24.96L39.79 24.96L39.79 54Z"/>
  <path fill="#22c55e" d="M66.26 13.91L82.31 54L73.50 54L70.00 44.89L53.98 44.89L50.67 54L42.09 54L57.70 13.91L66.26 13.91ZM56.47 38.14L67.41 38.14L61.88 23.27L56.47 38.14ZM94.23 21.02L86.55 21.02L86.55 13.91L94.23 13.91L94.23 21.02ZM94.23 54L86.55 54L86.55 24.96L94.23 24.96L94.23 54Z"/>
  <path fill="#064e3b" d="M110.78 54L105.64 54L96.75 24.96L101.84 24.96L106.46 41.72L108.18 47.96Q108.29 47.49 109.68 41.97L109.68 41.97L114.30 24.96L119.36 24.96L123.71 41.80L125.16 47.36L126.83 41.75L131.80 24.96L136.59 24.96L127.51 54L122.40 54L117.78 36.61L116.66 31.66L110.78 54ZM159.67 50.42L159.67 50.42Q156.93 52.74 154.40 53.70Q151.88 54.66 148.98 54.66L148.98 54.66Q144.19 54.66 141.62 52.32Q139.05 49.98 139.05 46.34L139.05 46.34Q139.05 44.21 140.02 42.45Q140.99 40.68 142.56 39.62Q144.14 38.55 146.11 38.00L146.11 38.00Q147.55 37.62 150.48 37.27L150.48 37.27Q156.44 36.55 159.26 35.57L159.26 35.57Q159.29 34.56 159.29 34.29L159.29 34.29Q159.29 31.28 157.89 30.05L157.89 30.05Q156.00 28.38 152.29 28.38L152.29 28.38Q148.81 28.38 147.16 29.60Q145.50 30.81 144.71 33.90L144.71 33.90L139.90 33.25Q140.55 30.16 142.06 28.26Q143.56 26.36 146.41 25.33Q149.25 24.30 153.00 24.30L153.00 24.30Q156.71 24.30 159.04 25.18Q161.36 26.05 162.46 27.38Q163.55 28.71 163.99 30.73L163.99 30.73Q164.23 31.99 164.23 35.27L164.23 35.27L164.23 41.83Q164.23 48.70 164.55 50.51Q164.86 52.33 165.79 54L165.79 54L160.65 54Q159.89 52.47 159.67 50.42ZM159.26 41.23L159.26 39.43Q156.58 40.52 151.22 41.29L151.22 41.29Q148.18 41.72 146.93 42.27Q145.67 42.82 144.98 43.87Q144.30 44.92 144.30 46.21L144.30 46.21Q144.30 48.18 145.79 49.49Q147.28 50.80 150.15 50.80L150.15 50.80Q153.00 50.80 155.21 49.56Q157.43 48.31 158.46 46.15L158.46 46.15Q159.26 44.48 159.26 41.23L159.26 41.23ZM171.64 65.18L171.64 65.18L171.10 60.56Q172.71 61 173.91 61L173.91 61Q175.55 61 176.54 60.45Q177.52 59.91 178.15 58.92L178.15 58.92Q178.62 58.18 179.66 55.26L179.66 55.26Q179.79 54.85 180.09 54.05L180.09 54.05L169.07 24.96L174.38 24.96L180.42 41.78Q181.60 44.98 182.53 48.50L182.53 48.50Q183.38 45.11 184.55 41.89L184.55 41.89L190.76 24.96L195.68 24.96L184.63 54.49Q182.86 59.28 181.87 61.08L181.87 61.08Q180.56 63.52 178.86 64.65Q177.17 65.79 174.82 65.79L174.82 65.79Q173.39 65.79 171.64 65.18Z"/>
</svg>
